<svg width="164" height="73" viewBox="0 0 164 73" fill="none" xmlns="http://www.w3.org/2000/svg">
<path fill-rule="evenodd" clip-rule="evenodd" d="M0.5 49.8235H163.5V0H0.5V49.8235ZM4.26686 46.0276H159.731V3.79263H4.26686V46.0276Z" fill="white"/>
<path fill-rule="evenodd" clip-rule="evenodd" d="M30.1883 27.2091C30.1883 31.434 30.1932 36.0565 30.1965 36.1907C30.1965 36.2934 30.2211 36.3912 30.2637 36.474C30.367 36.6861 30.5867 36.8319 30.8359 36.8319C31.0965 36.8319 31.3145 36.6563 31.3145 36.6563C31.3145 36.6563 47.3569 26.1819 47.3536 26.1537C47.6634 25.9317 47.8749 25.5175 47.8749 25.0387C47.8749 24.5682 47.6716 24.1606 47.37 23.9336C47.3749 23.8972 31.3293 13.3847 31.226 13.3201C31.1129 13.2323 30.9801 13.1776 30.8326 13.1776C30.4965 13.1776 30.2244 13.441 30.1998 13.7757C30.1932 13.9265 30.1883 14.0872 30.1883 14.2512V19.3509L41.1439 24.5997L41.1127 24.5914C41.2701 24.6726 41.3619 24.7223 41.3619 24.7223V24.7256C41.4439 24.7885 41.4996 24.8797 41.4996 24.9907C41.4996 25.1017 41.4439 25.1944 41.3619 25.2558V25.2574C41.3619 25.2574 34.9751 28.9405 34.9555 28.9405C34.8997 28.9405 34.8555 28.8941 34.8555 28.8378V25.0387L30.1883 27.2091Z" fill="white"/>
<path fill-rule="evenodd" clip-rule="evenodd" d="M20.0387 36.6995H23.3517C23.7156 36.6995 24.0156 36.3996 24.0156 36.0285V13.9383C24.0156 13.5688 23.7156 13.2673 23.3517 13.2673H20.0387C19.6747 13.2673 19.378 13.5688 19.378 13.9383V36.0285C19.378 36.3996 19.6747 36.6995 20.0387 36.6995Z" fill="white"/>
<path fill-rule="evenodd" clip-rule="evenodd" d="M52.1253 36.7003H64.2792C64.6447 36.7003 64.9447 36.3988 64.9447 36.0277V32.6826C64.9447 32.3147 64.6447 32.0149 64.2792 32.0149H56.4334C56.2334 32.0149 56.1006 31.879 56.1006 31.6785V27.6608C56.1006 27.4603 56.2334 27.3277 56.4334 27.3277H63.8841C64.2497 27.3277 64.5464 27.0279 64.5464 26.6567V23.31C64.5464 22.9422 64.2497 22.6423 63.8841 22.6423H56.4334C56.2334 22.6423 56.1006 22.5081 56.1006 22.306V18.2882C56.1006 18.0894 56.2334 17.9552 56.4334 17.9552H64.148C64.5103 17.9552 64.8119 17.6536 64.8119 17.2858V13.9391C64.8119 13.5713 64.5103 13.2681 64.148 13.2681H52.1253C51.7597 13.2681 51.4646 13.5713 51.4646 13.9391V36.0277C51.4646 36.3988 51.7597 36.7003 52.1253 36.7003Z" fill="white"/>
<path fill-rule="evenodd" clip-rule="evenodd" d="M76.6142 27.1939L78.2043 19.16C78.2338 19.059 78.2715 19.0242 78.3683 19.0242H78.4322C78.5338 19.0242 78.5666 19.059 78.601 19.16L80.1912 27.1939C80.2567 27.4607 80.1256 27.5617 79.9256 27.5617H76.8781C76.6781 27.5617 76.547 27.4607 76.6142 27.1939ZM70.3192 36.7007H73.7978C74.0962 36.7007 74.3618 36.4986 74.429 36.1954L75.3536 32.7509C75.4208 32.4493 75.5552 32.2488 75.8503 32.2488H80.8846C81.183 32.2488 81.3157 32.4824 81.3813 32.7509L82.4108 36.1954C82.5092 36.4986 82.7387 36.7007 83.0387 36.7007H86.5173C87.0451 36.7007 87.2451 36.3312 87.1779 36.028L81.2846 13.7704C81.219 13.4706 80.9518 13.2684 80.6535 13.2684H76.2158C75.9191 13.2684 75.6535 13.4706 75.5863 13.7704L69.6586 36.028C69.593 36.3312 69.7914 36.7007 70.3192 36.7007Z" fill="white"/>
<path fill-rule="evenodd" clip-rule="evenodd" d="M99.2028 37.0675C103.773 37.0675 107.088 33.9229 107.088 29.4379V29.4031C107.088 29.0353 106.788 28.7321 106.422 28.7321H103.114C102.749 28.7321 102.449 29.0684 102.449 29.4379V29.471C102.449 30.9075 101.158 32.3473 99.2028 32.3473C97.1848 32.3473 96.1586 31.1444 95.993 29.6699C95.6586 26.8599 95.6586 23.1089 95.993 20.2973C96.1586 18.8244 97.1848 17.6215 99.2028 17.6215C101.293 17.6215 102.449 19.1591 102.449 20.5326V20.5657C102.449 20.9335 102.749 21.2367 103.114 21.2367H106.422C106.788 21.2367 107.088 20.9037 107.088 20.5657V20.5326C107.088 16.0807 103.773 12.903 99.2028 12.903C94.6357 12.903 91.7849 16.2812 91.321 20.2973C90.9882 23.1089 90.9882 26.8599 91.321 29.6699C91.7849 33.686 94.6357 37.0675 99.2028 37.0675Z" fill="white"/>
<path fill-rule="evenodd" clip-rule="evenodd" d="M111.145 17.9544H115.281C115.483 17.9544 115.616 18.0902 115.616 18.2891V36.0285C115.616 36.3996 115.911 36.6995 116.278 36.6995H119.589C119.953 36.6995 120.25 36.3996 120.25 36.0285V18.2891C120.25 18.0902 120.383 17.9544 120.583 17.9544H124.724C125.088 17.9544 125.386 17.6528 125.386 17.2867V13.9383C125.386 13.5705 125.088 13.2673 124.724 13.2673H111.145C110.778 13.2673 110.481 13.5705 110.481 13.9383V17.2867C110.481 17.6528 110.778 17.9544 111.145 17.9544Z" fill="white"/>
<path fill-rule="evenodd" clip-rule="evenodd" d="M133.88 20.2973C134.049 18.8244 135.075 17.6215 137.093 17.6215C139.116 17.6215 140.137 18.8244 140.306 20.2973C140.64 23.1089 140.64 26.8599 140.306 29.6699C140.137 31.1444 139.116 32.3473 137.093 32.3473C135.075 32.3473 134.049 31.1444 133.88 29.6699C133.552 26.8599 133.552 23.1089 133.88 20.2973ZM137.093 37.0675C141.665 37.0675 144.514 33.6876 144.975 29.6699C145.309 26.8599 145.309 23.1089 144.975 20.2973C144.514 16.2812 141.665 12.903 137.093 12.903C132.524 12.903 129.677 16.2812 129.213 20.2973C128.881 23.1089 128.881 26.8599 129.213 29.6699C129.677 33.6876 132.524 37.0675 137.093 37.0675Z" fill="white"/>
<path fill-rule="evenodd" clip-rule="evenodd" d="M1.49391 64.955H6.22661V64.062H1.49391V60.6738H6.55612V59.7808H0.500488V69.6537H6.72169V68.7607H1.49391V64.955Z" fill="white"/>
<path fill-rule="evenodd" clip-rule="evenodd" d="M13.6062 63.1282H12.475L10.7079 65.6101L8.94232 63.1282H7.74398L10.1292 66.2795L7.59152 69.6528H8.72265L10.6964 66.9339L12.6144 69.6528H13.8275L11.2603 66.2364L13.6062 63.1282Z" fill="white"/>
<mask id="mask0_506_28017" style="mask-type:alpha" maskUnits="userSpaceOnUse" x="15" y="62" width="8" height="11">
<path d="M15.2891 62.9608H22.0349V73H15.2891V62.9608Z" fill="white"/>
</mask>
<g mask="url(#mask0_506_28017)">
<path fill-rule="evenodd" clip-rule="evenodd" d="M20.8775 67.4159C20.7677 67.7357 20.607 68.0157 20.4005 68.2526C20.1939 68.4895 19.9398 68.6751 19.6349 68.8093C19.3316 68.9452 18.9874 69.0114 18.6005 69.0114C18.2431 69.0114 17.9104 68.9452 17.6071 68.8093C17.3038 68.6751 17.0415 68.4912 16.8202 68.2592C16.6005 68.0273 16.4268 67.7506 16.3038 67.4292C16.1792 67.1094 16.1169 66.7631 16.1169 66.3904C16.1169 66.0192 16.1792 65.673 16.3038 65.3515C16.4268 65.0318 16.6005 64.7534 16.8202 64.5165C17.0415 64.2779 17.3038 64.0924 17.6071 63.9582C17.9104 63.824 18.2431 63.756 18.6005 63.756C18.9874 63.756 19.3316 63.8256 19.6349 63.9648C19.9398 64.104 20.1939 64.2928 20.4005 64.5298C20.607 64.7667 20.7677 65.045 20.8775 65.3664C20.9857 65.6862 21.0431 66.0292 21.0431 66.3904C21.0431 66.7532 20.9857 67.0945 20.8775 67.4159ZM21.1169 63.9515C20.8283 63.6434 20.4792 63.4031 20.0693 63.2258C19.6611 63.0486 19.2038 62.9608 18.6972 62.9608C18.2382 62.9608 17.7841 63.0701 17.3382 63.2888C16.8907 63.5075 16.5366 63.8306 16.2678 64.258H16.2268V63.1281H15.2891V73.001H16.2268V68.5525H16.2678C16.5366 68.9617 16.8907 69.2749 17.3382 69.4936C17.7841 69.7123 18.2382 69.8216 18.6972 69.8216C19.2038 69.8216 19.6611 69.7321 20.0693 69.5565C20.4792 69.3792 20.8283 69.1373 21.1169 68.8308C21.407 68.5243 21.6332 68.1615 21.7955 67.744C21.9545 67.3248 22.0349 66.8741 22.0349 66.3904C22.0349 65.9082 21.9545 65.4559 21.7955 65.0384C21.6332 64.6209 21.407 64.258 21.1169 63.9515Z" fill="white"/>
</g>
<path fill-rule="evenodd" clip-rule="evenodd" d="M24.574 65.8885C24.5937 65.6101 24.6625 65.3417 24.7806 65.0866C24.9002 64.8314 25.0609 64.6044 25.2642 64.404C25.4658 64.2035 25.7002 64.0461 25.9674 63.9301C26.2346 63.8141 26.5231 63.7545 26.8363 63.7545C27.5084 63.7545 28.0248 63.9566 28.3887 64.3625C28.7526 64.7668 28.9477 65.2754 28.9756 65.8885H24.574ZM29.1411 63.9169C28.8838 63.6236 28.5625 63.3916 28.1739 63.2193C27.7887 63.047 27.3412 62.9609 26.8363 62.9609C26.3772 62.9609 25.9494 63.047 25.5543 63.2193C25.1576 63.3916 24.8133 63.6302 24.5199 63.9367C24.2248 64.2432 23.9937 64.6061 23.8297 65.0253C23.6625 65.4428 23.5822 65.8984 23.5822 66.3905C23.5822 66.8842 23.6658 67.3382 23.8363 67.7573C24.0052 68.1749 24.2379 68.5377 24.533 68.8442C24.8265 69.1524 25.1789 69.391 25.5871 69.5633C25.9969 69.7339 26.4412 69.8217 26.9199 69.8217C27.4526 69.8217 27.9526 69.714 28.4166 69.5003C28.8805 69.2866 29.3067 68.9337 29.6919 68.4416L28.9887 67.8833C28.8051 68.1798 28.5362 68.4433 28.1821 68.6702C27.8264 68.8972 27.4084 69.0115 26.9199 69.0115C26.5887 69.0115 26.2805 68.9502 25.9953 68.8227C25.71 68.6984 25.4609 68.5294 25.2494 68.314C25.0379 68.1003 24.874 67.8501 24.7527 67.5618C24.633 67.2736 24.5691 66.967 24.5592 66.6423H29.9132C29.9231 66.5578 29.928 66.4783 29.928 66.4054V66.195C29.928 65.7493 29.8608 65.3318 29.728 64.9408C29.5936 64.5498 29.3969 64.2085 29.1411 63.9169Z" fill="white"/>
<path fill-rule="evenodd" clip-rule="evenodd" d="M34.9349 62.9609C34.4743 62.9609 34.0612 63.0802 33.6923 63.3171C33.3251 63.554 33.0497 63.8622 32.8645 64.2432H32.8382C32.8382 64.1041 32.8333 63.9268 32.8235 63.7147C32.8153 63.501 32.8005 63.3055 32.7841 63.1282H31.8858C31.9038 63.3519 31.917 63.6021 31.9268 63.8804C31.9366 64.1604 31.9415 64.3874 31.9415 64.5647V69.6544H32.8792V66.3143C32.8792 65.8802 32.9317 65.5057 33.0382 65.1959C33.1432 64.8844 33.2809 64.6293 33.4513 64.4305C33.6218 64.2316 33.8218 64.0858 34.0513 63.9931C34.2825 63.8986 34.5202 63.8539 34.7677 63.8539C34.8989 63.8539 35.0267 63.8622 35.1562 63.8804C35.2841 63.9003 35.3775 63.9185 35.4316 63.9367L35.5562 63.0305C35.453 63.0023 35.3562 62.9841 35.2579 62.9741C35.1628 62.9658 35.053 62.9609 34.9349 62.9609Z" fill="white"/>
<path fill-rule="evenodd" clip-rule="evenodd" d="M37.3906 59.949C37.2234 59.949 37.0742 60.0119 36.9349 60.1379C36.7972 60.2621 36.7283 60.4228 36.7283 60.6183C36.7283 60.8138 36.7972 60.9745 36.9349 61.0988C37.0742 61.2247 37.2234 61.2877 37.3906 61.2877C37.5562 61.2877 37.707 61.2247 37.8447 61.0988C37.9824 60.9745 38.0513 60.8138 38.0513 60.6183C38.0513 60.4228 37.9824 60.2621 37.8447 60.1379C37.707 60.0119 37.5562 59.949 37.3906 59.949Z" fill="white"/>
<mask id="mask1_506_28017" style="mask-type:alpha" maskUnits="userSpaceOnUse" x="0" y="0" width="164" height="73">
<path d="M0.5 73H163.361V0.0308228H0.5V73Z" fill="white"/>
</mask>
<g mask="url(#mask1_506_28017)">
<path fill-rule="evenodd" clip-rule="evenodd" d="M36.9223 69.6533H37.86V63.1288H36.9223V69.6533Z" fill="white"/>
<path fill-rule="evenodd" clip-rule="evenodd" d="M40.8806 65.8885C40.8986 65.6101 40.9691 65.3417 41.0871 65.0866C41.2068 64.8314 41.3675 64.6044 41.5707 64.404C41.7724 64.2035 42.0068 64.0461 42.274 63.9301C42.5412 63.8141 42.8297 63.7545 43.1428 63.7545C43.815 63.7545 44.3313 63.9566 44.6953 64.3625C45.0592 64.7668 45.2543 65.2754 45.2821 65.8885H40.8806ZM45.4477 63.9169C45.1903 63.6236 44.869 63.3916 44.4805 63.2193C44.0953 63.047 43.6477 62.9609 43.1428 62.9609C42.6838 62.9609 42.256 63.047 41.8609 63.2193C41.4642 63.3916 41.1199 63.6302 40.8265 63.9367C40.5314 64.2432 40.3003 64.6061 40.1363 65.0253C39.9691 65.4428 39.8888 65.8984 39.8888 66.3905C39.8888 66.8842 39.9724 67.3382 40.1429 67.7573C40.3117 68.1749 40.5445 68.5377 40.8396 68.8442C41.133 69.1524 41.4855 69.391 41.8937 69.5633C42.3035 69.7339 42.7478 69.8217 43.2264 69.8217C43.7592 69.8217 44.2592 69.714 44.7231 69.5003C45.1871 69.2866 45.6133 68.9337 45.9985 68.4416L45.2953 67.8833C45.1117 68.1798 44.8428 68.4433 44.4887 68.6702C44.133 68.8972 43.715 69.0115 43.2264 69.0115C42.8953 69.0115 42.5871 68.9502 42.3019 68.8227C42.0166 68.6984 41.7675 68.5294 41.556 68.314C41.3445 68.1003 41.1806 67.8501 41.0593 67.5618C40.9396 67.2736 40.8757 66.967 40.8658 66.6423H46.2198C46.2297 66.5578 46.2346 66.4783 46.2346 66.4054V66.195C46.2346 65.7493 46.1674 65.3318 46.0346 64.9408C45.9002 64.5498 45.7034 64.2085 45.4477 63.9169Z" fill="white"/>
<path fill-rule="evenodd" clip-rule="evenodd" d="M51.3792 62.9609C50.9202 62.9609 50.4825 63.0802 50.0678 63.3171C49.6547 63.554 49.3563 63.8622 49.1711 64.2432H49.1449C49.1449 64.1041 49.1399 63.9268 49.1301 63.7147C49.1219 63.501 49.1071 63.3055 49.0891 63.1282H48.1924C48.2104 63.3519 48.2236 63.6021 48.2334 63.8804C48.2432 64.1604 48.2481 64.3874 48.2481 64.5647V69.6544H49.1858V66.3076C49.1858 65.8702 49.2399 65.4908 49.3514 65.1711C49.4612 64.8496 49.6088 64.5845 49.7924 64.3758C49.9776 64.167 50.1858 64.0113 50.4202 63.9086C50.6563 63.8075 50.8956 63.7545 51.1432 63.7545C51.4842 63.7545 51.7678 63.8108 51.994 63.9235C52.2186 64.0345 52.3973 64.1902 52.5317 64.3907C52.6645 64.5895 52.7595 64.8281 52.8136 65.1081C52.8694 65.3864 52.8972 65.6979 52.8972 66.0425V69.6544H53.8349V65.6515C53.8349 64.843 53.63 64.1935 53.2202 63.6998C52.812 63.2061 52.1973 62.9609 51.3792 62.9609Z" fill="white"/>
<path fill-rule="evenodd" clip-rule="evenodd" d="M60.2914 68.775C60.0061 68.934 59.657 69.0119 59.2422 69.0119C58.8652 69.0119 58.5258 68.9456 58.2209 68.8098C57.9193 68.6756 57.6619 68.49 57.4504 68.2531C57.2373 68.0162 57.075 67.7395 56.9603 67.423C56.8439 67.1066 56.7865 66.7636 56.7865 66.3908C56.7865 66.0197 56.8439 65.6718 56.9603 65.352C57.075 65.0306 57.2406 64.7523 57.457 64.5153C57.6718 64.2784 57.9324 64.0928 58.2357 63.957C58.5406 63.8228 58.8799 63.7549 59.257 63.7549C59.6061 63.7549 59.9291 63.8377 60.2291 64.0001C60.5291 64.1624 60.7553 64.3695 60.9127 64.6197L61.6438 64.0895C61.3668 63.7184 61.0078 63.4367 60.5602 63.2462C60.1143 63.0557 59.675 62.9612 59.2422 62.9612C58.7193 62.9612 58.2455 63.0457 57.8209 63.2181C57.398 63.3904 57.039 63.6306 56.739 63.9371C56.439 64.2436 56.2078 64.6065 56.0423 65.024C55.8767 65.4431 55.7947 65.8988 55.7947 66.3908C55.7947 66.8829 55.8767 67.3385 56.0423 67.7577C56.2078 68.1752 56.439 68.5381 56.739 68.8446C57.039 69.1527 57.398 69.3913 57.8209 69.5636C58.2455 69.7343 58.7193 69.8204 59.2422 69.8204C59.8029 69.8204 60.2848 69.7177 60.6848 69.5139C61.0848 69.3101 61.4225 69.0351 61.6979 68.6921L60.9963 68.162C60.811 68.4122 60.5766 68.6176 60.2914 68.775Z" fill="white"/>
<path fill-rule="evenodd" clip-rule="evenodd" d="M63.6854 65.8885C63.7035 65.6101 63.7739 65.3417 63.892 65.0866C64.0116 64.8314 64.1723 64.6044 64.3756 64.404C64.5772 64.2035 64.8116 64.0461 65.0788 63.9301C65.346 63.8141 65.6346 63.7545 65.9477 63.7545C66.6198 63.7545 67.1362 63.9566 67.5001 64.3625C67.864 64.7668 68.0591 65.2754 68.087 65.8885H63.6854ZM68.2526 63.9169C67.9952 63.6236 67.6739 63.3916 67.2854 63.2193C66.9001 63.047 66.4526 62.9609 65.9477 62.9609C65.4887 62.9609 65.0608 63.047 64.6657 63.2193C64.269 63.3916 63.9248 63.6302 63.6313 63.9367C63.3362 64.2432 63.1051 64.6061 62.9412 65.0253C62.774 65.4428 62.6936 65.8984 62.6936 66.3905C62.6936 66.8842 62.7772 67.3382 62.9477 67.7573C63.1166 68.1749 63.3494 68.5377 63.6444 68.8442C63.9379 69.1524 64.2903 69.391 64.6985 69.5633C65.1083 69.7339 65.5526 69.8217 66.0313 69.8217C66.5641 69.8217 67.064 69.714 67.528 69.5003C67.9919 69.2866 68.4181 68.9337 68.8034 68.4416L68.1001 67.8833C67.9165 68.1798 67.6476 68.4433 67.2936 68.6702C66.9378 68.8972 66.5198 69.0115 66.0313 69.0115C65.7001 69.0115 65.3919 68.9502 65.1067 68.8227C64.8215 68.6984 64.5723 68.5294 64.3608 68.314C64.1493 68.1003 63.9854 67.8501 63.8641 67.5618C63.7444 67.2736 63.6805 66.967 63.6707 66.6423H69.0247C69.0345 66.5578 69.0394 66.4783 69.0394 66.4054V66.195C69.0394 65.7493 68.9722 65.3318 68.8394 64.9408C68.705 64.5498 68.5083 64.2085 68.2526 63.9169Z" fill="white"/>
<path fill-rule="evenodd" clip-rule="evenodd" d="M76.9712 58.9449C76.2253 58.9449 75.6745 59.1587 75.3155 59.5861C74.9565 60.0152 74.7778 60.6001 74.7778 61.3423V63.1284H73.4254V63.922H74.7778V69.6529H75.7155V63.922H77.2335V63.1284H75.7155V61.455C75.7155 61.2231 75.7319 61.0044 75.7647 60.7989C75.7958 60.5951 75.8549 60.4162 75.9434 60.2621C76.0303 60.1097 76.1548 59.9904 76.3155 59.9076C76.4762 59.8231 76.6811 59.7816 76.9302 59.7816C77.0581 59.7816 77.1729 59.7916 77.2745 59.8098C77.3761 59.828 77.4778 59.8512 77.5778 59.8794L77.7433 59.0427C77.6237 59.0062 77.4942 58.9797 77.3565 58.9665C77.2188 58.9516 77.0893 58.9449 76.9712 58.9449Z" fill="white"/>
<path fill-rule="evenodd" clip-rule="evenodd" d="M83.8214 67.4159C83.7067 67.7357 83.5428 68.0157 83.3313 68.2526C83.1182 68.4895 82.8624 68.6751 82.5575 68.8093C82.2543 68.9452 81.9149 69.0114 81.5362 69.0114C81.1608 69.0114 80.8231 68.9452 80.5231 68.8093C80.2248 68.6751 79.969 68.4895 79.7576 68.2526C79.5461 68.0157 79.3822 67.7357 79.2691 67.4159C79.1527 67.0945 79.0953 66.7532 79.0953 66.3904C79.0953 66.0292 79.1527 65.6862 79.2691 65.3664C79.3822 65.045 79.5461 64.7667 79.7576 64.5298C79.969 64.2928 80.2248 64.104 80.5231 63.9648C80.8231 63.8256 81.1608 63.756 81.5362 63.756C81.9149 63.756 82.2543 63.8256 82.5575 63.9648C82.8624 64.104 83.1182 64.2928 83.3313 64.5298C83.5428 64.7667 83.7067 65.045 83.8214 65.3664C83.9346 65.6862 83.9919 66.0292 83.9919 66.3904C83.9919 66.7532 83.9346 67.0945 83.8214 67.4159ZM84.0214 63.9366C83.7182 63.6301 83.3542 63.3915 82.9313 63.2192C82.5067 63.0469 82.0428 62.9608 81.5362 62.9608C81.0412 62.9608 80.5805 63.0469 80.1592 63.2192C79.7346 63.3915 79.3707 63.6301 79.0691 63.9366C78.7642 64.2431 78.5281 64.606 78.3576 65.0251C78.1871 65.4427 78.1019 65.8983 78.1019 66.3904C78.1019 66.8841 78.1871 67.3397 78.3576 67.7572C78.5281 68.1747 78.7642 68.5376 79.0691 68.8441C79.3707 69.1523 79.7346 69.3908 80.1592 69.5631C80.5805 69.7338 81.0412 69.8216 81.5362 69.8216C82.0428 69.8216 82.5067 69.7338 82.9313 69.5631C83.3542 69.3908 83.7182 69.1523 84.0214 68.8441C84.3247 68.5376 84.5608 68.1747 84.7313 67.7572C84.9017 67.3397 84.987 66.8841 84.987 66.3904C84.987 65.8983 84.9017 65.4427 84.7313 65.0251C84.5608 64.606 84.3247 64.2431 84.0214 63.9366Z" fill="white"/>
<path fill-rule="evenodd" clip-rule="evenodd" d="M89.9944 62.9609C89.5354 62.9609 89.1207 63.0802 88.7518 63.3171C88.3863 63.554 88.1092 63.8622 87.924 64.2432H87.8977C87.8977 64.1041 87.8928 63.9268 87.883 63.7147C87.8748 63.501 87.86 63.3055 87.8437 63.1282H86.9453C86.9633 63.3519 86.9765 63.6021 86.9863 63.8804C86.9961 64.1604 87.001 64.3874 87.001 64.5647V69.6544H87.9387V66.3143C87.9387 65.8802 87.9912 65.5057 88.0977 65.1959C88.2027 64.8844 88.3404 64.6293 88.5109 64.4305C88.6813 64.2316 88.8813 64.0858 89.1108 63.9931C89.342 63.8986 89.5797 63.8539 89.8272 63.8539C89.9584 63.8539 90.0862 63.8622 90.2157 63.8804C90.3436 63.9003 90.437 63.9185 90.4911 63.9367L90.6157 63.0305C90.5125 63.0023 90.4157 62.9841 90.3174 62.9741C90.2223 62.9658 90.1141 62.9609 89.9944 62.9609Z" fill="white"/>
<path fill-rule="evenodd" clip-rule="evenodd" d="M101.652 68.6635C101.146 68.8971 100.611 69.0114 100.05 69.0114C99.4259 69.0114 98.8636 68.8971 98.3603 68.6635C97.8603 68.4332 97.4357 68.12 97.0849 67.7274C96.7358 67.333 96.4669 66.8758 96.2784 66.3572C96.0882 65.8386 95.9964 65.2919 95.9964 64.7186C95.9964 64.1437 96.0866 63.5969 96.2718 63.0784C96.4554 62.5581 96.721 62.1025 97.0718 61.7082C97.421 61.3155 97.8472 61.0024 98.3472 60.7704C98.8488 60.5385 99.4177 60.4225 100.05 60.4225C100.364 60.4225 100.657 60.4606 100.927 60.5352C101.2 60.6097 101.449 60.7075 101.68 60.8284C101.909 60.9494 102.109 61.0885 102.28 61.2459C102.449 61.405 102.585 61.5624 102.686 61.7198L103.514 61.1051C103.349 60.8649 103.141 60.6478 102.893 60.4556C102.644 60.2651 102.368 60.1011 102.065 59.9636C101.762 59.826 101.437 59.72 101.093 59.6438C100.747 59.5692 100.396 59.5311 100.037 59.5311C99.3111 59.5311 98.6374 59.6604 98.0161 59.9221C97.3948 60.1806 96.8571 60.5418 96.403 61.0007C95.9473 61.4613 95.5915 62.0081 95.3341 62.6393C95.0751 63.2722 94.9473 63.9647 94.9473 64.7186C94.9473 65.4708 95.0719 66.1633 95.3276 66.7962C95.58 67.4275 95.9309 67.9726 96.3817 68.4332C96.8325 68.8938 97.3702 69.2533 97.9964 69.5151C98.621 69.7735 99.3013 69.9044 100.037 69.9044C100.478 69.9044 100.885 69.8547 101.259 69.757C101.631 69.6575 101.97 69.5217 102.28 69.3527C102.586 69.182 102.859 68.9849 103.093 68.7629C103.327 68.5375 103.529 68.3006 103.693 68.0504L102.921 67.5484C102.58 68.0587 102.159 68.4315 101.652 68.6635Z" fill="white"/>
<path fill-rule="evenodd" clip-rule="evenodd" d="M110.433 67.4159C110.318 67.7357 110.154 68.0157 109.943 68.2526C109.731 68.4895 109.474 68.6751 109.169 68.8093C108.868 68.9452 108.527 69.0114 108.15 69.0114C107.772 69.0114 107.435 68.9452 107.135 68.8093C106.838 68.6751 106.581 68.4895 106.369 68.2526C106.159 68.0157 105.995 67.7357 105.881 67.4159C105.764 67.0945 105.707 66.7532 105.707 66.3904C105.707 66.0292 105.764 65.6862 105.881 65.3664C105.995 65.045 106.159 64.7667 106.369 64.5298C106.581 64.2928 106.838 64.104 107.135 63.9648C107.435 63.8256 107.772 63.756 108.15 63.756C108.527 63.756 108.868 63.8256 109.169 63.9648C109.474 64.104 109.731 64.2928 109.943 64.5298C110.154 64.7667 110.318 65.045 110.433 65.3664C110.548 65.6862 110.605 66.0292 110.605 66.3904C110.605 66.7532 110.548 67.0945 110.433 67.4159ZM110.633 63.9366C110.33 63.6301 109.966 63.3915 109.543 63.2192C109.12 63.0469 108.654 62.9608 108.15 62.9608C107.653 62.9608 107.192 63.0469 106.771 63.2192C106.346 63.3915 105.984 63.6301 105.681 63.9366C105.377 64.2431 105.14 64.606 104.969 65.0251C104.799 65.4427 104.715 65.8983 104.715 66.3904C104.715 66.8841 104.799 67.3397 104.969 67.7572C105.14 68.1747 105.377 68.5376 105.681 68.8441C105.984 69.1523 106.346 69.3908 106.771 69.5631C107.192 69.7338 107.653 69.8216 108.15 69.8216C108.654 69.8216 109.12 69.7338 109.543 69.5631C109.966 69.3908 110.33 69.1523 110.633 68.8441C110.936 68.5376 111.172 68.1747 111.345 67.7572C111.513 67.3397 111.599 66.8841 111.599 66.3904C111.599 65.8983 111.513 65.4427 111.345 65.0251C111.172 64.606 110.936 64.2431 110.633 63.9366Z" fill="white"/>
<path fill-rule="evenodd" clip-rule="evenodd" d="M120.911 62.9609C120.388 62.9609 119.932 63.0802 119.552 63.3171C119.17 63.554 118.87 63.8953 118.649 64.341C118.539 64.0627 118.408 63.834 118.255 63.6584C118.103 63.4811 117.939 63.3403 117.759 63.2326C117.58 63.1266 117.395 63.0537 117.206 63.0172C117.018 62.9791 116.837 62.9609 116.662 62.9609C116.193 62.9609 115.767 63.0802 115.386 63.3171C115.003 63.554 114.721 63.8622 114.537 64.2432H114.509C114.509 64.1041 114.505 63.9268 114.496 63.7147C114.486 63.501 114.472 63.3055 114.455 63.1282H113.559C113.575 63.3519 113.59 63.6021 113.6 63.8804C113.608 64.1604 113.613 64.3874 113.613 64.5647V69.6544H114.55V66.3076C114.55 65.8702 114.606 65.4908 114.718 65.1711C114.826 64.8496 114.972 64.5845 115.15 64.3758C115.331 64.167 115.532 64.0113 115.757 63.9086C115.983 63.8075 116.206 63.7545 116.427 63.7545C116.741 63.7545 116.996 63.8042 117.2 63.9019C117.401 63.9997 117.56 64.1389 117.675 64.3195C117.791 64.5017 117.872 64.7221 117.918 64.9822C117.963 65.2423 117.986 65.5306 117.986 65.847V69.6544H118.924V66.1817C118.924 65.8752 118.957 65.5786 119.021 65.2887C119.085 65.0004 119.188 64.7436 119.331 64.515C119.473 64.288 119.662 64.1041 119.898 63.9649C120.131 63.8257 120.419 63.7545 120.758 63.7545C121.365 63.7545 121.796 63.9649 122.049 64.3824C122.303 64.8016 122.429 65.355 122.429 66.0425V69.6544H123.367V65.6515C123.367 64.843 123.162 64.1935 122.754 63.6998C122.344 63.2061 121.729 62.9609 120.911 62.9609Z" fill="white"/>
<path fill-rule="evenodd" clip-rule="evenodd" d="M133.092 62.9609C132.569 62.9609 132.115 63.0802 131.733 63.3171C131.351 63.554 131.051 63.8953 130.83 64.341C130.72 64.0627 130.589 63.834 130.438 63.6584C130.285 63.4811 130.12 63.3403 129.94 63.2326C129.761 63.1266 129.576 63.0537 129.389 63.0172C129.2 62.9791 129.018 62.9609 128.843 62.9609C128.374 62.9609 127.948 63.0802 127.568 63.3171C127.184 63.554 126.904 63.8622 126.718 64.2432H126.692C126.692 64.1041 126.687 63.9268 126.677 63.7147C126.668 63.501 126.654 63.3055 126.636 63.1282H125.74C125.758 63.3519 125.771 63.6021 125.781 63.8804C125.79 64.1604 125.795 64.3874 125.795 64.5647V69.6544H126.733V66.3076C126.733 65.8702 126.787 65.4908 126.899 65.1711C127.009 64.8496 127.153 64.5845 127.333 64.3758C127.512 64.167 127.715 64.0113 127.94 63.9086C128.164 63.8075 128.389 63.7545 128.61 63.7545C128.922 63.7545 129.179 63.8042 129.381 63.9019C129.584 63.9997 129.743 64.1389 129.858 64.3195C129.972 64.5017 130.053 64.7221 130.099 64.9822C130.145 65.2423 130.167 65.5306 130.167 65.847V69.6544H131.105V66.1817C131.105 65.8752 131.138 65.5786 131.204 65.2887C131.267 65.0004 131.371 64.7436 131.513 64.515C131.656 64.288 131.843 64.1041 132.079 63.9649C132.312 63.8257 132.6 63.7545 132.941 63.7545C133.548 63.7545 133.977 63.9649 134.23 64.3824C134.484 64.8016 134.61 65.355 134.61 66.0425V69.6544H135.548V65.6515C135.548 64.843 135.343 64.1935 134.935 63.6998C134.525 63.2061 133.912 62.9609 133.092 62.9609Z" fill="white"/>
<path fill-rule="evenodd" clip-rule="evenodd" d="M138.501 65.8885C138.519 65.6101 138.588 65.3417 138.708 65.0866C138.826 64.8314 138.988 64.6044 139.19 64.404C139.393 64.2035 139.628 64.0461 139.895 63.9301C140.16 63.8141 140.449 63.7545 140.764 63.7545C141.434 63.7545 141.951 63.9566 142.314 64.3625C142.678 64.7668 142.873 65.2754 142.901 65.8885H138.501ZM143.067 63.9169C142.81 63.6236 142.488 63.3916 142.101 63.2193C141.716 63.047 141.269 62.9609 140.764 62.9609C140.303 62.9609 139.875 63.047 139.48 63.2193C139.083 63.3916 138.741 63.6302 138.446 63.9367C138.151 64.2432 137.921 64.6061 137.756 65.0253C137.59 65.4428 137.508 65.8984 137.508 66.3905C137.508 66.8842 137.592 67.3382 137.764 67.7573C137.933 68.1749 138.165 68.5377 138.46 68.8442C138.752 69.1524 139.105 69.391 139.515 69.5633C139.923 69.7339 140.369 69.8217 140.846 69.8217C141.38 69.8217 141.878 69.714 142.344 69.5003C142.808 69.2866 143.232 68.9337 143.619 68.4416L142.914 67.8833C142.731 68.1798 142.462 68.4433 142.108 68.6702C141.754 68.8972 141.334 69.0115 140.846 69.0115C140.516 69.0115 140.206 68.9502 139.921 68.8227C139.636 68.6984 139.388 68.5294 139.177 68.314C138.965 68.1003 138.8 67.8501 138.678 67.5618C138.56 67.2736 138.496 66.967 138.487 66.6423H143.841C143.849 66.5578 143.854 66.4783 143.854 66.4054V66.195C143.854 65.7493 143.787 65.3318 143.654 64.9408C143.521 64.5498 143.324 64.2085 143.067 63.9169Z" fill="white"/>
<path fill-rule="evenodd" clip-rule="evenodd" d="M148.861 62.9609C148.402 62.9609 147.987 63.0802 147.62 63.3171C147.253 63.554 146.977 63.8622 146.792 64.2432H146.766C146.766 64.1041 146.761 63.9268 146.751 63.7147C146.741 63.501 146.727 63.3055 146.71 63.1282H145.813C145.83 63.3519 145.845 63.6021 145.854 63.8804C145.863 64.1604 145.868 64.3874 145.868 64.5647V69.6544H146.805V66.3143C146.805 65.8802 146.858 65.5057 146.964 65.1959C147.069 64.8844 147.207 64.6293 147.379 64.4305C147.548 64.2316 147.748 64.0858 147.979 63.9931C148.208 63.8986 148.448 63.8539 148.695 63.8539C148.825 63.8539 148.954 63.8622 149.082 63.8804C149.212 63.9003 149.304 63.9185 149.359 63.9367L149.482 63.0305C149.381 63.0023 149.282 62.9841 149.185 62.9741C149.09 62.9658 148.981 62.9609 148.861 62.9609Z" fill="white"/>
<path fill-rule="evenodd" clip-rule="evenodd" d="M154.614 68.775C154.329 68.934 153.98 69.0119 153.565 69.0119C153.188 69.0119 152.849 68.9456 152.544 68.8098C152.242 68.6756 151.985 68.49 151.773 68.2531C151.56 68.0162 151.398 67.7395 151.283 67.423C151.167 67.1066 151.11 66.7636 151.11 66.3908C151.11 66.0197 151.167 65.6718 151.283 65.352C151.398 65.0306 151.564 64.7523 151.78 64.5153C151.995 64.2784 152.255 64.0928 152.559 63.957C152.862 63.8228 153.203 63.7549 153.58 63.7549C153.929 63.7549 154.252 63.8377 154.552 64.0001C154.852 64.1624 155.078 64.3695 155.236 64.6197L155.965 64.0895C155.69 63.7184 155.329 63.4367 154.883 63.2462C154.437 63.0557 153.998 62.9612 153.565 62.9612C153.042 62.9612 152.567 63.0457 152.144 63.2181C151.721 63.3904 151.36 63.6306 151.062 63.9371C150.762 64.2436 150.531 64.6065 150.365 65.024C150.2 65.4431 150.116 65.8988 150.116 66.3908C150.116 66.8829 150.2 67.3385 150.365 67.7577C150.531 68.1752 150.762 68.5381 151.062 68.8446C151.36 69.1527 151.721 69.3913 152.144 69.5636C152.567 69.7343 153.042 69.8204 153.565 69.8204C154.126 69.8204 154.608 69.7177 155.006 69.5139C155.406 69.3101 155.744 69.0351 156.021 68.6921L155.318 68.162C155.132 68.4122 154.9 68.6176 154.614 68.775Z" fill="white"/>
<path fill-rule="evenodd" clip-rule="evenodd" d="M158.008 65.8885C158.026 65.6101 158.097 65.3417 158.215 65.0866C158.334 64.8314 158.495 64.6044 158.698 64.404C158.9 64.2035 159.134 64.0461 159.402 63.9301C159.669 63.8141 159.957 63.7545 160.271 63.7545C160.943 63.7545 161.459 63.9566 161.823 64.3625C162.187 64.7668 162.382 65.2754 162.41 65.8885H158.008ZM162.574 63.9169C162.318 63.6236 161.997 63.3916 161.608 63.2193C161.223 63.047 160.775 62.9609 160.271 62.9609C159.812 62.9609 159.384 63.047 158.989 63.2193C158.592 63.3916 158.248 63.6302 157.953 63.9367C157.659 64.2432 157.428 64.6061 157.264 65.0253C157.097 65.4428 157.015 65.8984 157.015 66.3905C157.015 66.8842 157.098 67.3382 157.271 67.7573C157.439 68.1749 157.672 68.5377 157.967 68.8442C158.261 69.1524 158.613 69.391 159.021 69.5633C159.431 69.7339 159.875 69.8217 160.354 69.8217C160.887 69.8217 161.387 69.714 161.851 69.5003C162.315 69.2866 162.741 68.9337 163.126 68.4416L162.423 67.8833C162.239 68.1798 161.969 68.4433 161.615 68.6702C161.261 68.8972 160.841 69.0115 160.354 69.0115C160.023 69.0115 159.715 68.9502 159.43 68.8227C159.143 68.6984 158.895 68.5294 158.684 68.314C158.472 68.1003 158.308 67.8501 158.187 67.5618C158.067 67.2736 158.003 66.967 157.994 66.6423H163.348C163.357 66.5578 163.362 66.4783 163.362 66.4054V66.195C163.362 65.7493 163.295 65.3318 163.162 64.9408C163.028 64.5498 162.831 64.2085 162.574 63.9169Z" fill="white"/>
</g>
</svg>
